<svg id="svg2" xmlns="http://www.w3.org/2000/svg" xmlns:xlink="http://www.w3.org/1999/xlink" viewBox="0 0 15.11 14.67"><defs><style>.cls-1{fill:none;}.cls-2{clip-path:url(#clip-path);}.cls-3{fill:#aa8ed6;}.cls-4{fill:#fcab40;}.cls-5{fill:#5dadec;}</style><clipPath id="clip-path" transform="translate(-14.94 -15.39)"><rect class="cls-1" x="14.5" y="14.5" width="16" height="16"/></clipPath></defs><title>sparkles2</title><g id="g10"><g id="g12"><g class="cls-2"><g id="g14"><g id="g20"><path id="path22" class="cls-3" d="M29.77,22l-4-1.46L24.33,15.7a.44.44,0,0,0-.85,0L22,20.54l-4,1.46a.44.44,0,0,0,0,.83l4,1.46,1.48,5a.44.44,0,0,0,.85,0l1.48-5,4-1.46a.44.44,0,0,0,0-.83" transform="translate(-14.94 -15.39)"/></g><g id="g24"><path id="path26" class="cls-4" d="M20.88,26.9l-1-.38-.4-1.47a.44.44,0,0,0-.86,0l-.4,1.47-1,.38a.44.44,0,0,0,0,.83l1,.38.4,1.61a.44.44,0,0,0,.86,0l.4-1.61,1-.38a.44.44,0,0,0,0-.83" transform="translate(-14.94 -15.39)"/></g><g id="g28"><path id="path30" class="cls-5" d="M18.95,17.27l-1.05-.39-.39-1.05a.44.44,0,0,0-.83,0l-.39,1.05-1.05.39a.44.44,0,0,0,0,.83l1.05.39.39,1.05a.44.44,0,0,0,.83,0l.39-1.05,1.05-.39a.44.44,0,0,0,0-.83" transform="translate(-14.94 -15.39)"/></g></g></g></g></g></svg>
